<mxfile host="app.diagrams.net" modified="2023-11-08T10:00:41.595Z" agent="Mozilla/5.0 (Macintosh; Intel Mac OS X 10_15_7) AppleWebKit/605.1.15 (KHTML, like Gecko) Version/15.4 Safari/605.1.15" etag="I6BIyjGj0GC6Ner8Xt9J" version="22.0.8" type="github">
  <diagram name="Page-1" id="jASNOiwGnqA6pGNYTXdg">
    <mxGraphModel dx="2058" dy="1323" grid="1" gridSize="10" guides="1" tooltips="1" connect="1" arrows="1" fold="1" page="1" pageScale="1" pageWidth="1169" pageHeight="827" math="0" shadow="0">
      <root>
        <mxCell id="0" />
        <mxCell id="1" parent="0" />
        <mxCell id="znEUngbkiNl1JFGDMSZA-22" value="" style="rounded=1;whiteSpace=wrap;html=1;fillColor=none;dashed=1;strokeColor=default;dashPattern=8 8;" parent="1" vertex="1">
          <mxGeometry x="470" y="150" width="360" height="200" as="geometry" />
        </mxCell>
        <mxCell id="znEUngbkiNl1JFGDMSZA-8" value="motivating" style="edgeStyle=orthogonalEdgeStyle;rounded=0;orthogonalLoop=1;jettySize=auto;html=1;exitX=1;exitY=0.5;exitDx=0;exitDy=0;entryX=0;entryY=0.5;entryDx=0;entryDy=0;" parent="1" source="znEUngbkiNl1JFGDMSZA-6" target="znEUngbkiNl1JFGDMSZA-7" edge="1">
          <mxGeometry x="0.0118" y="9" relative="1" as="geometry">
            <mxPoint as="offset" />
          </mxGeometry>
        </mxCell>
        <mxCell id="znEUngbkiNl1JFGDMSZA-6" value="Person" style="rounded=1;whiteSpace=wrap;html=1;" parent="1" vertex="1">
          <mxGeometry x="-50" y="-50" width="90" height="30" as="geometry" />
        </mxCell>
        <mxCell id="znEUngbkiNl1JFGDMSZA-7" value="Team" style="rounded=1;whiteSpace=wrap;html=1;" parent="1" vertex="1">
          <mxGeometry x="125" y="-50" width="90" height="30" as="geometry" />
        </mxCell>
        <mxCell id="znEUngbkiNl1JFGDMSZA-9" value="cooking" style="edgeStyle=orthogonalEdgeStyle;rounded=0;orthogonalLoop=1;jettySize=auto;html=1;exitX=1;exitY=0.5;exitDx=0;exitDy=0;entryX=0;entryY=0.5;entryDx=0;entryDy=0;" parent="1" source="znEUngbkiNl1JFGDMSZA-10" target="znEUngbkiNl1JFGDMSZA-11" edge="1">
          <mxGeometry x="-0.0052" y="11" relative="1" as="geometry">
            <mxPoint as="offset" />
          </mxGeometry>
        </mxCell>
        <mxCell id="znEUngbkiNl1JFGDMSZA-10" value="Person" style="rounded=1;whiteSpace=wrap;html=1;" parent="1" vertex="1">
          <mxGeometry x="480" y="170" width="90" height="30" as="geometry" />
        </mxCell>
        <mxCell id="znEUngbkiNl1JFGDMSZA-11" value="Dish" style="rounded=1;whiteSpace=wrap;html=1;" parent="1" vertex="1">
          <mxGeometry x="730" y="170" width="90" height="30" as="geometry" />
        </mxCell>
        <mxCell id="znEUngbkiNl1JFGDMSZA-17" style="edgeStyle=orthogonalEdgeStyle;rounded=0;orthogonalLoop=1;jettySize=auto;html=1;exitX=0.5;exitY=0;exitDx=0;exitDy=0;entryX=0.5;entryY=1;entryDx=0;entryDy=0;dashed=1;endArrow=block;endFill=0;" parent="1" source="znEUngbkiNl1JFGDMSZA-12" target="znEUngbkiNl1JFGDMSZA-11" edge="1">
          <mxGeometry relative="1" as="geometry" />
        </mxCell>
        <mxCell id="znEUngbkiNl1JFGDMSZA-12" value="ingredients" style="rounded=1;whiteSpace=wrap;html=1;" parent="1" vertex="1">
          <mxGeometry x="730" y="240" width="90" height="30" as="geometry" />
        </mxCell>
        <mxCell id="znEUngbkiNl1JFGDMSZA-19" style="edgeStyle=orthogonalEdgeStyle;rounded=0;orthogonalLoop=1;jettySize=auto;html=1;exitX=0.5;exitY=0;exitDx=0;exitDy=0;startArrow=blockThin;startFill=0;endArrow=none;endFill=0;dashed=1;" parent="1" source="znEUngbkiNl1JFGDMSZA-14" edge="1">
          <mxGeometry relative="1" as="geometry">
            <mxPoint x="650" y="190" as="targetPoint" />
          </mxGeometry>
        </mxCell>
        <mxCell id="znEUngbkiNl1JFGDMSZA-20" style="edgeStyle=orthogonalEdgeStyle;rounded=0;orthogonalLoop=1;jettySize=auto;html=1;exitX=1;exitY=0.5;exitDx=0;exitDy=0;entryX=0;entryY=0.5;entryDx=0;entryDy=0;endArrow=block;endFill=0;dashed=1;" parent="1" source="znEUngbkiNl1JFGDMSZA-14" target="znEUngbkiNl1JFGDMSZA-12" edge="1">
          <mxGeometry relative="1" as="geometry" />
        </mxCell>
        <mxCell id="znEUngbkiNl1JFGDMSZA-14" value="&lt;font style=&quot;font-size: 11px;&quot;&gt;select and blend&lt;/font&gt;" style="rounded=1;whiteSpace=wrap;html=1;" parent="1" vertex="1">
          <mxGeometry x="605" y="240" width="90" height="30" as="geometry" />
        </mxCell>
        <mxCell id="znEUngbkiNl1JFGDMSZA-16" style="edgeStyle=orthogonalEdgeStyle;rounded=0;orthogonalLoop=1;jettySize=auto;html=1;exitX=0.5;exitY=0;exitDx=0;exitDy=0;dashed=1;endArrow=block;endFill=0;entryX=0.5;entryY=1;entryDx=0;entryDy=0;" parent="1" source="znEUngbkiNl1JFGDMSZA-15" target="znEUngbkiNl1JFGDMSZA-12" edge="1">
          <mxGeometry relative="1" as="geometry">
            <mxPoint x="880" y="300" as="targetPoint" />
          </mxGeometry>
        </mxCell>
        <mxCell id="znEUngbkiNl1JFGDMSZA-15" value="serve fresh" style="rounded=1;whiteSpace=wrap;html=1;" parent="1" vertex="1">
          <mxGeometry x="730" y="300" width="90" height="30" as="geometry" />
        </mxCell>
        <mxCell id="znEUngbkiNl1JFGDMSZA-24" style="edgeStyle=orthogonalEdgeStyle;rounded=0;orthogonalLoop=1;jettySize=auto;html=1;exitX=0.5;exitY=0;exitDx=0;exitDy=0;entryX=0.5;entryY=1;entryDx=0;entryDy=0;endArrow=block;endFill=0;dashed=1;" parent="1" source="znEUngbkiNl1JFGDMSZA-23" target="znEUngbkiNl1JFGDMSZA-7" edge="1">
          <mxGeometry relative="1" as="geometry" />
        </mxCell>
        <mxCell id="znEUngbkiNl1JFGDMSZA-23" value="people" style="rounded=1;whiteSpace=wrap;html=1;" parent="1" vertex="1">
          <mxGeometry x="125" y="15" width="90" height="30" as="geometry" />
        </mxCell>
        <mxCell id="znEUngbkiNl1JFGDMSZA-25" value="" style="rounded=1;whiteSpace=wrap;html=1;fillColor=none;dashed=1;strokeColor=default;dashPattern=8 8;" parent="1" vertex="1">
          <mxGeometry x="280" y="-80" width="360" height="200" as="geometry" />
        </mxCell>
        <mxCell id="znEUngbkiNl1JFGDMSZA-26" value="" style="rounded=1;whiteSpace=wrap;html=1;fillColor=none;dashed=1;strokeColor=default;dashPattern=8 8;" parent="1" vertex="1">
          <mxGeometry x="70" y="150" width="360" height="200" as="geometry" />
        </mxCell>
        <mxCell id="znEUngbkiNl1JFGDMSZA-27" value="motivating" style="edgeStyle=orthogonalEdgeStyle;rounded=0;orthogonalLoop=1;jettySize=auto;html=1;exitX=1;exitY=0.5;exitDx=0;exitDy=0;entryX=0;entryY=0.5;entryDx=0;entryDy=0;" parent="1" source="znEUngbkiNl1JFGDMSZA-28" target="znEUngbkiNl1JFGDMSZA-29" edge="1">
          <mxGeometry y="11" relative="1" as="geometry">
            <mxPoint as="offset" />
          </mxGeometry>
        </mxCell>
        <mxCell id="znEUngbkiNl1JFGDMSZA-28" value="Person" style="rounded=1;whiteSpace=wrap;html=1;" parent="1" vertex="1">
          <mxGeometry x="80" y="170" width="90" height="30" as="geometry" />
        </mxCell>
        <mxCell id="znEUngbkiNl1JFGDMSZA-29" value="Team" style="rounded=1;whiteSpace=wrap;html=1;" parent="1" vertex="1">
          <mxGeometry x="330" y="170" width="90" height="30" as="geometry" />
        </mxCell>
        <mxCell id="znEUngbkiNl1JFGDMSZA-37" value="" style="rounded=1;whiteSpace=wrap;html=1;fillColor=none;dashed=1;strokeColor=default;dashPattern=8 8;" parent="1" vertex="1">
          <mxGeometry x="70" y="390" width="360" height="200" as="geometry" />
        </mxCell>
        <mxCell id="znEUngbkiNl1JFGDMSZA-38" value="motivating" style="edgeStyle=orthogonalEdgeStyle;rounded=0;orthogonalLoop=1;jettySize=auto;html=1;exitX=1;exitY=0.5;exitDx=0;exitDy=0;entryX=0;entryY=0.5;entryDx=0;entryDy=0;" parent="1" source="znEUngbkiNl1JFGDMSZA-39" target="znEUngbkiNl1JFGDMSZA-40" edge="1">
          <mxGeometry x="-0.0052" y="11" relative="1" as="geometry">
            <mxPoint as="offset" />
          </mxGeometry>
        </mxCell>
        <mxCell id="znEUngbkiNl1JFGDMSZA-39" value="Person" style="rounded=1;whiteSpace=wrap;html=1;" parent="1" vertex="1">
          <mxGeometry x="80" y="410" width="90" height="30" as="geometry" />
        </mxCell>
        <mxCell id="znEUngbkiNl1JFGDMSZA-40" value="Team" style="rounded=1;whiteSpace=wrap;html=1;" parent="1" vertex="1">
          <mxGeometry x="330" y="410" width="90" height="30" as="geometry" />
        </mxCell>
        <mxCell id="znEUngbkiNl1JFGDMSZA-41" style="edgeStyle=orthogonalEdgeStyle;rounded=0;orthogonalLoop=1;jettySize=auto;html=1;exitX=0.5;exitY=0;exitDx=0;exitDy=0;entryX=0.5;entryY=1;entryDx=0;entryDy=0;dashed=1;endArrow=block;endFill=0;" parent="1" source="znEUngbkiNl1JFGDMSZA-42" target="znEUngbkiNl1JFGDMSZA-40" edge="1">
          <mxGeometry relative="1" as="geometry" />
        </mxCell>
        <mxCell id="znEUngbkiNl1JFGDMSZA-42" value="people" style="rounded=1;whiteSpace=wrap;html=1;" parent="1" vertex="1">
          <mxGeometry x="330" y="480" width="90" height="30" as="geometry" />
        </mxCell>
        <mxCell id="znEUngbkiNl1JFGDMSZA-43" style="edgeStyle=orthogonalEdgeStyle;rounded=0;orthogonalLoop=1;jettySize=auto;html=1;exitX=0.5;exitY=0;exitDx=0;exitDy=0;startArrow=blockThin;startFill=0;endArrow=none;endFill=0;dashed=1;" parent="1" source="znEUngbkiNl1JFGDMSZA-45" edge="1">
          <mxGeometry relative="1" as="geometry">
            <mxPoint x="250" y="430" as="targetPoint" />
          </mxGeometry>
        </mxCell>
        <mxCell id="znEUngbkiNl1JFGDMSZA-44" style="edgeStyle=orthogonalEdgeStyle;rounded=0;orthogonalLoop=1;jettySize=auto;html=1;exitX=1;exitY=0.5;exitDx=0;exitDy=0;entryX=0;entryY=0.5;entryDx=0;entryDy=0;endArrow=block;endFill=0;dashed=1;" parent="1" source="znEUngbkiNl1JFGDMSZA-45" target="znEUngbkiNl1JFGDMSZA-42" edge="1">
          <mxGeometry relative="1" as="geometry" />
        </mxCell>
        <mxCell id="znEUngbkiNl1JFGDMSZA-45" value="&lt;font style=&quot;font-size: 11px;&quot;&gt;delegate&amp;nbsp;&lt;/font&gt;" style="rounded=1;whiteSpace=wrap;html=1;" parent="1" vertex="1">
          <mxGeometry x="205" y="480" width="90" height="30" as="geometry" />
        </mxCell>
        <mxCell id="znEUngbkiNl1JFGDMSZA-46" style="edgeStyle=orthogonalEdgeStyle;rounded=0;orthogonalLoop=1;jettySize=auto;html=1;exitX=0.5;exitY=0;exitDx=0;exitDy=0;dashed=1;endArrow=block;endFill=0;entryX=0.5;entryY=1;entryDx=0;entryDy=0;" parent="1" source="znEUngbkiNl1JFGDMSZA-47" target="znEUngbkiNl1JFGDMSZA-42" edge="1">
          <mxGeometry relative="1" as="geometry">
            <mxPoint x="480" y="540" as="targetPoint" />
          </mxGeometry>
        </mxCell>
        <mxCell id="znEUngbkiNl1JFGDMSZA-47" value="up-skilled" style="rounded=1;whiteSpace=wrap;html=1;" parent="1" vertex="1">
          <mxGeometry x="330" y="540" width="90" height="30" as="geometry" />
        </mxCell>
        <mxCell id="znEUngbkiNl1JFGDMSZA-48" value="&lt;b&gt;Source&lt;/b&gt;" style="text;html=1;strokeColor=none;fillColor=none;align=center;verticalAlign=middle;whiteSpace=wrap;rounded=0;" parent="1" vertex="1">
          <mxGeometry x="480" y="310" width="60" height="30" as="geometry" />
        </mxCell>
        <mxCell id="znEUngbkiNl1JFGDMSZA-49" value="&lt;b&gt;Target&lt;/b&gt;" style="text;html=1;strokeColor=none;fillColor=none;align=center;verticalAlign=middle;whiteSpace=wrap;rounded=0;" parent="1" vertex="1">
          <mxGeometry x="80" y="310" width="60" height="30" as="geometry" />
        </mxCell>
        <mxCell id="znEUngbkiNl1JFGDMSZA-50" value="" style="rounded=1;whiteSpace=wrap;html=1;fillColor=none;dashed=1;strokeColor=default;dashPattern=8 8;" parent="1" vertex="1">
          <mxGeometry x="470" y="395" width="360" height="200" as="geometry" />
        </mxCell>
        <mxCell id="znEUngbkiNl1JFGDMSZA-51" value="cooking" style="edgeStyle=orthogonalEdgeStyle;rounded=0;orthogonalLoop=1;jettySize=auto;html=1;exitX=1;exitY=0.5;exitDx=0;exitDy=0;entryX=0;entryY=0.5;entryDx=0;entryDy=0;" parent="1" source="znEUngbkiNl1JFGDMSZA-52" target="znEUngbkiNl1JFGDMSZA-53" edge="1">
          <mxGeometry x="-0.0052" y="11" relative="1" as="geometry">
            <mxPoint as="offset" />
          </mxGeometry>
        </mxCell>
        <mxCell id="znEUngbkiNl1JFGDMSZA-52" value="Person" style="rounded=1;whiteSpace=wrap;html=1;" parent="1" vertex="1">
          <mxGeometry x="480" y="415" width="90" height="30" as="geometry" />
        </mxCell>
        <mxCell id="znEUngbkiNl1JFGDMSZA-53" value="Dish" style="rounded=1;whiteSpace=wrap;html=1;" parent="1" vertex="1">
          <mxGeometry x="730" y="415" width="90" height="30" as="geometry" />
        </mxCell>
        <mxCell id="znEUngbkiNl1JFGDMSZA-54" style="edgeStyle=orthogonalEdgeStyle;rounded=0;orthogonalLoop=1;jettySize=auto;html=1;exitX=0.5;exitY=0;exitDx=0;exitDy=0;entryX=0.5;entryY=1;entryDx=0;entryDy=0;dashed=1;endArrow=block;endFill=0;" parent="1" source="znEUngbkiNl1JFGDMSZA-55" target="znEUngbkiNl1JFGDMSZA-53" edge="1">
          <mxGeometry relative="1" as="geometry" />
        </mxCell>
        <mxCell id="znEUngbkiNl1JFGDMSZA-55" value="ingredients" style="rounded=1;whiteSpace=wrap;html=1;" parent="1" vertex="1">
          <mxGeometry x="730" y="485" width="90" height="30" as="geometry" />
        </mxCell>
        <mxCell id="znEUngbkiNl1JFGDMSZA-56" style="edgeStyle=orthogonalEdgeStyle;rounded=0;orthogonalLoop=1;jettySize=auto;html=1;exitX=0.5;exitY=0;exitDx=0;exitDy=0;startArrow=blockThin;startFill=0;endArrow=none;endFill=0;dashed=1;" parent="1" source="znEUngbkiNl1JFGDMSZA-58" edge="1">
          <mxGeometry relative="1" as="geometry">
            <mxPoint x="650" y="435" as="targetPoint" />
          </mxGeometry>
        </mxCell>
        <mxCell id="znEUngbkiNl1JFGDMSZA-57" style="edgeStyle=orthogonalEdgeStyle;rounded=0;orthogonalLoop=1;jettySize=auto;html=1;exitX=1;exitY=0.5;exitDx=0;exitDy=0;entryX=0;entryY=0.5;entryDx=0;entryDy=0;endArrow=block;endFill=0;dashed=1;" parent="1" source="znEUngbkiNl1JFGDMSZA-58" target="znEUngbkiNl1JFGDMSZA-55" edge="1">
          <mxGeometry relative="1" as="geometry" />
        </mxCell>
        <mxCell id="znEUngbkiNl1JFGDMSZA-58" value="&lt;font style=&quot;font-size: 11px;&quot;&gt;select and blend&lt;/font&gt;" style="rounded=1;whiteSpace=wrap;html=1;" parent="1" vertex="1">
          <mxGeometry x="605" y="485" width="90" height="30" as="geometry" />
        </mxCell>
        <mxCell id="znEUngbkiNl1JFGDMSZA-59" style="edgeStyle=orthogonalEdgeStyle;rounded=0;orthogonalLoop=1;jettySize=auto;html=1;exitX=0.5;exitY=0;exitDx=0;exitDy=0;dashed=1;endArrow=block;endFill=0;entryX=0.5;entryY=1;entryDx=0;entryDy=0;" parent="1" source="znEUngbkiNl1JFGDMSZA-60" target="znEUngbkiNl1JFGDMSZA-55" edge="1">
          <mxGeometry relative="1" as="geometry">
            <mxPoint x="880" y="545" as="targetPoint" />
          </mxGeometry>
        </mxCell>
        <mxCell id="znEUngbkiNl1JFGDMSZA-60" value="serve fresh" style="rounded=1;whiteSpace=wrap;html=1;" parent="1" vertex="1">
          <mxGeometry x="730" y="545" width="90" height="30" as="geometry" />
        </mxCell>
        <mxCell id="znEUngbkiNl1JFGDMSZA-61" value="&lt;b&gt;Source&lt;/b&gt;" style="text;html=1;strokeColor=none;fillColor=none;align=center;verticalAlign=middle;whiteSpace=wrap;rounded=0;" parent="1" vertex="1">
          <mxGeometry x="480" y="555" width="60" height="30" as="geometry" />
        </mxCell>
        <mxCell id="znEUngbkiNl1JFGDMSZA-62" value="&lt;b&gt;Target&lt;/b&gt;" style="text;html=1;strokeColor=none;fillColor=none;align=center;verticalAlign=middle;whiteSpace=wrap;rounded=0;" parent="1" vertex="1">
          <mxGeometry x="80" y="555" width="60" height="30" as="geometry" />
        </mxCell>
        <mxCell id="ua3LcPoCW63yyeBJR-2Q-1" value="" style="rounded=1;whiteSpace=wrap;html=1;fillColor=none;dashed=1;strokeColor=default;dashPattern=8 8;" vertex="1" parent="1">
          <mxGeometry x="60" y="640" width="360" height="200" as="geometry" />
        </mxCell>
        <mxCell id="ua3LcPoCW63yyeBJR-2Q-2" value="motivating" style="edgeStyle=orthogonalEdgeStyle;rounded=0;orthogonalLoop=1;jettySize=auto;html=1;exitX=1;exitY=0.5;exitDx=0;exitDy=0;entryX=0;entryY=0.5;entryDx=0;entryDy=0;" edge="1" parent="1" source="ua3LcPoCW63yyeBJR-2Q-3" target="ua3LcPoCW63yyeBJR-2Q-4">
          <mxGeometry x="-0.0052" y="11" relative="1" as="geometry">
            <mxPoint as="offset" />
          </mxGeometry>
        </mxCell>
        <mxCell id="ua3LcPoCW63yyeBJR-2Q-3" value="Person" style="rounded=1;whiteSpace=wrap;html=1;" vertex="1" parent="1">
          <mxGeometry x="70" y="660" width="90" height="30" as="geometry" />
        </mxCell>
        <mxCell id="ua3LcPoCW63yyeBJR-2Q-4" value="Team" style="rounded=1;whiteSpace=wrap;html=1;" vertex="1" parent="1">
          <mxGeometry x="320" y="660" width="90" height="30" as="geometry" />
        </mxCell>
        <mxCell id="ua3LcPoCW63yyeBJR-2Q-5" style="edgeStyle=orthogonalEdgeStyle;rounded=0;orthogonalLoop=1;jettySize=auto;html=1;exitX=0.5;exitY=0;exitDx=0;exitDy=0;entryX=0.5;entryY=1;entryDx=0;entryDy=0;dashed=1;endArrow=block;endFill=0;" edge="1" parent="1" source="ua3LcPoCW63yyeBJR-2Q-6" target="ua3LcPoCW63yyeBJR-2Q-4">
          <mxGeometry relative="1" as="geometry" />
        </mxCell>
        <mxCell id="ua3LcPoCW63yyeBJR-2Q-6" value="people" style="rounded=1;whiteSpace=wrap;html=1;" vertex="1" parent="1">
          <mxGeometry x="320" y="730" width="90" height="30" as="geometry" />
        </mxCell>
        <mxCell id="ua3LcPoCW63yyeBJR-2Q-7" style="edgeStyle=orthogonalEdgeStyle;rounded=0;orthogonalLoop=1;jettySize=auto;html=1;exitX=0.5;exitY=0;exitDx=0;exitDy=0;startArrow=blockThin;startFill=0;endArrow=none;endFill=0;dashed=1;" edge="1" parent="1" source="ua3LcPoCW63yyeBJR-2Q-9">
          <mxGeometry relative="1" as="geometry">
            <mxPoint x="240" y="680" as="targetPoint" />
          </mxGeometry>
        </mxCell>
        <mxCell id="ua3LcPoCW63yyeBJR-2Q-8" style="edgeStyle=orthogonalEdgeStyle;rounded=0;orthogonalLoop=1;jettySize=auto;html=1;exitX=1;exitY=0.5;exitDx=0;exitDy=0;entryX=0;entryY=0.5;entryDx=0;entryDy=0;endArrow=block;endFill=0;dashed=1;" edge="1" parent="1" source="ua3LcPoCW63yyeBJR-2Q-9" target="ua3LcPoCW63yyeBJR-2Q-6">
          <mxGeometry relative="1" as="geometry" />
        </mxCell>
        <mxCell id="ua3LcPoCW63yyeBJR-2Q-9" value="&lt;font style=&quot;font-size: 11px;&quot;&gt;delegate&amp;nbsp;&lt;/font&gt;" style="rounded=1;whiteSpace=wrap;html=1;" vertex="1" parent="1">
          <mxGeometry x="195" y="730" width="90" height="30" as="geometry" />
        </mxCell>
        <mxCell id="ua3LcPoCW63yyeBJR-2Q-10" style="edgeStyle=orthogonalEdgeStyle;rounded=0;orthogonalLoop=1;jettySize=auto;html=1;exitX=0.5;exitY=0;exitDx=0;exitDy=0;dashed=1;endArrow=block;endFill=0;entryX=0.5;entryY=1;entryDx=0;entryDy=0;" edge="1" parent="1" source="ua3LcPoCW63yyeBJR-2Q-11" target="ua3LcPoCW63yyeBJR-2Q-6">
          <mxGeometry relative="1" as="geometry">
            <mxPoint x="470" y="790" as="targetPoint" />
          </mxGeometry>
        </mxCell>
        <mxCell id="ua3LcPoCW63yyeBJR-2Q-11" value="up-skilled" style="rounded=1;whiteSpace=wrap;html=1;" vertex="1" parent="1">
          <mxGeometry x="320" y="790" width="90" height="30" as="geometry" />
        </mxCell>
        <mxCell id="ua3LcPoCW63yyeBJR-2Q-12" value="" style="rounded=1;whiteSpace=wrap;html=1;fillColor=none;dashed=1;strokeColor=default;dashPattern=8 8;" vertex="1" parent="1">
          <mxGeometry x="460" y="645" width="360" height="200" as="geometry" />
        </mxCell>
        <mxCell id="ua3LcPoCW63yyeBJR-2Q-13" value="cooking" style="edgeStyle=orthogonalEdgeStyle;rounded=0;orthogonalLoop=1;jettySize=auto;html=1;exitX=1;exitY=0.5;exitDx=0;exitDy=0;entryX=0;entryY=0.5;entryDx=0;entryDy=0;" edge="1" parent="1" source="ua3LcPoCW63yyeBJR-2Q-14" target="ua3LcPoCW63yyeBJR-2Q-15">
          <mxGeometry x="-0.0052" y="11" relative="1" as="geometry">
            <mxPoint as="offset" />
          </mxGeometry>
        </mxCell>
        <mxCell id="ua3LcPoCW63yyeBJR-2Q-14" value="Person" style="rounded=1;whiteSpace=wrap;html=1;" vertex="1" parent="1">
          <mxGeometry x="470" y="665" width="90" height="30" as="geometry" />
        </mxCell>
        <mxCell id="ua3LcPoCW63yyeBJR-2Q-15" value="Dish" style="rounded=1;whiteSpace=wrap;html=1;" vertex="1" parent="1">
          <mxGeometry x="720" y="665" width="90" height="30" as="geometry" />
        </mxCell>
        <mxCell id="ua3LcPoCW63yyeBJR-2Q-16" style="edgeStyle=orthogonalEdgeStyle;rounded=0;orthogonalLoop=1;jettySize=auto;html=1;exitX=0.5;exitY=0;exitDx=0;exitDy=0;entryX=0.5;entryY=1;entryDx=0;entryDy=0;dashed=1;endArrow=block;endFill=0;" edge="1" parent="1" source="ua3LcPoCW63yyeBJR-2Q-17" target="ua3LcPoCW63yyeBJR-2Q-15">
          <mxGeometry relative="1" as="geometry" />
        </mxCell>
        <mxCell id="ua3LcPoCW63yyeBJR-2Q-17" value="ingredients" style="rounded=1;whiteSpace=wrap;html=1;" vertex="1" parent="1">
          <mxGeometry x="720" y="735" width="90" height="30" as="geometry" />
        </mxCell>
        <mxCell id="ua3LcPoCW63yyeBJR-2Q-18" style="edgeStyle=orthogonalEdgeStyle;rounded=0;orthogonalLoop=1;jettySize=auto;html=1;exitX=0.5;exitY=0;exitDx=0;exitDy=0;startArrow=blockThin;startFill=0;endArrow=none;endFill=0;dashed=1;" edge="1" parent="1" source="ua3LcPoCW63yyeBJR-2Q-20">
          <mxGeometry relative="1" as="geometry">
            <mxPoint x="640" y="685" as="targetPoint" />
          </mxGeometry>
        </mxCell>
        <mxCell id="ua3LcPoCW63yyeBJR-2Q-19" style="edgeStyle=orthogonalEdgeStyle;rounded=0;orthogonalLoop=1;jettySize=auto;html=1;exitX=1;exitY=0.5;exitDx=0;exitDy=0;entryX=0;entryY=0.5;entryDx=0;entryDy=0;endArrow=block;endFill=0;dashed=1;" edge="1" parent="1" source="ua3LcPoCW63yyeBJR-2Q-20" target="ua3LcPoCW63yyeBJR-2Q-17">
          <mxGeometry relative="1" as="geometry" />
        </mxCell>
        <mxCell id="ua3LcPoCW63yyeBJR-2Q-20" value="&lt;font style=&quot;font-size: 11px;&quot;&gt;select and blend&lt;/font&gt;" style="rounded=1;whiteSpace=wrap;html=1;" vertex="1" parent="1">
          <mxGeometry x="595" y="735" width="90" height="30" as="geometry" />
        </mxCell>
        <mxCell id="ua3LcPoCW63yyeBJR-2Q-21" style="edgeStyle=orthogonalEdgeStyle;rounded=0;orthogonalLoop=1;jettySize=auto;html=1;exitX=0.5;exitY=0;exitDx=0;exitDy=0;dashed=1;endArrow=block;endFill=0;entryX=0.5;entryY=1;entryDx=0;entryDy=0;" edge="1" parent="1" source="ua3LcPoCW63yyeBJR-2Q-22" target="ua3LcPoCW63yyeBJR-2Q-17">
          <mxGeometry relative="1" as="geometry">
            <mxPoint x="870" y="795" as="targetPoint" />
          </mxGeometry>
        </mxCell>
        <mxCell id="ua3LcPoCW63yyeBJR-2Q-22" value="serve fresh" style="rounded=1;whiteSpace=wrap;html=1;" vertex="1" parent="1">
          <mxGeometry x="720" y="795" width="90" height="30" as="geometry" />
        </mxCell>
        <mxCell id="ua3LcPoCW63yyeBJR-2Q-23" value="&lt;b&gt;Source&lt;/b&gt;" style="text;html=1;strokeColor=none;fillColor=none;align=center;verticalAlign=middle;whiteSpace=wrap;rounded=0;" vertex="1" parent="1">
          <mxGeometry x="470" y="805" width="60" height="30" as="geometry" />
        </mxCell>
        <mxCell id="ua3LcPoCW63yyeBJR-2Q-24" value="&lt;b&gt;Target&lt;/b&gt;" style="text;html=1;strokeColor=none;fillColor=none;align=center;verticalAlign=middle;whiteSpace=wrap;rounded=0;" vertex="1" parent="1">
          <mxGeometry x="70" y="805" width="60" height="30" as="geometry" />
        </mxCell>
      </root>
    </mxGraphModel>
  </diagram>
</mxfile>
